PathFileType	4	(X/Y/Z)	 2.5Hzhigh3min.trc
DataRate	CameraRate	NumFrames	NumMarkers	Units	OrigDataRate	OrigDataStartFrame	OrigNumFrames
200	200	11	35	m	200	876	1000
Frame#	Time	C7			LSH			RSH			MAN			RASI			LASI			HIPR			HIPL			RPSI			LPSI			COX			RTHI1			RTHI2			RTHI3			RTHI4			RSHA1			RSHA2			RSHA3			RSHA4			RHEEL			RMET5			RMET1			RTOE			LTHI1			LTHI2			LTHI3			LTHI4			LSHA1			LSHA2			LSHA3			LSHA4			LHEEL			LMET5			LMET1			LTOE			
		X1	Y1	Z1	X2	Y2	Z2	X3	Y3	Z3	X4	Y4	Z4	X5	Y5	Z5	X6	Y6	Z6	X7	Y7	Z7	X8	Y8	Z8	X9	Y9	Z9	X10	Y10	Z10	X11	Y11	Z11	X12	Y12	Z12	X13	Y13	Z13	X14	Y14	Z14	X15	Y15	Z15	X16	Y16	Z16	X17	Y17	Z17	X18	Y18	Z18	X19	Y19	Z19	X20	Y20	Z20	X21	Y21	Z21	X22	Y22	Z22	X23	Y23	Z23	X24	Y24	Z24	X25	Y25	Z25	X26	Y26	Z26	X27	Y27	Z27	X28	Y28	Z28	X29	Y29	Z29	X30	Y30	Z30	X31	Y31	Z31	X32	Y32	Z32	X33	Y33	Z33	X34	Y34	Z34	X35	Y35	Z35	
876	4.3800	-0.311330	1.407937	-0.587906	-0.267163	1.376454	-0.759877	-0.278479	1.396238	-0.412798	-0.195553	1.367605	-0.583409	-0.174014	0.978927	-0.483026	-0.168179	0.983216	-0.662647	-0.242481	1.023002	-0.441310	-0.232699	1.026348	-0.704112	-0.318378	1.008626	-0.515145	-0.315655	1.009668	-0.625854	-0.321896	1.021297	-0.573677	-0.261553	0.809608	-0.401657	-0.243786	0.752538	-0.395874	-0.181688	0.766594	-0.408290	-0.191332	0.826881	-0.414982	-0.274943	0.371021	-0.369554	-0.295250	0.333426	-0.368047	-0.242582	0.312225	-0.390230	-0.228039	0.349581	-0.394031	-0.392553	0.140761	-0.416765	-0.266987	0.038060	-0.363674	-0.243248	0.034673	-0.436619	-0.221599	0.024426	-0.431218	-0.241891	0.770193	-0.748328	-0.225805	0.710738	-0.745596	-0.164691	0.721876	-0.726427	-0.173096	0.781022	-0.727869	-0.319857	0.343570	-0.743703	-0.337344	0.307112	-0.740947	-0.277970	0.286619	-0.736492	-0.267884	0.329390	-0.740725	-0.407897	0.146275	-0.691967	-0.288160	0.032350	-0.737279	-0.261811	0.033827	-0.667209	-0.242033	0.023373	-0.672956	
877	4.3850	-0.311287	1.413073	-0.588273	-0.266598	1.381971	-0.759971	-0.278257	1.401779	-0.413493	-0.196009	1.372854	-0.583702	-0.173885	0.984324	-0.483710	-0.167828	0.988348	-0.662987	-0.242203	1.028884	-0.442351	-0.232091	1.031574	-0.704368	-0.317825	1.013929	-0.516034	-0.314972	1.014669	-0.626554	-0.321437	1.026378	-0.574474	-0.261251	0.815343	-0.401574	-0.243968	0.758138	-0.395724	-0.181818	0.771594	-0.408548	-0.190968	0.831929	-0.415474	-0.276679	0.375245	-0.369349	-0.296367	0.337222	-0.367935	-0.243126	0.316802	-0.389434	-0.229198	0.354340	-0.393329	-0.389633	0.144281	-0.417150	-0.266211	0.039092	-0.363855	-0.242283	0.035560	-0.436300	-0.221271	0.024644	-0.430982	-0.241975	0.775535	-0.749086	-0.226376	0.715948	-0.746412	-0.165259	0.726549	-0.726975	-0.173187	0.785777	-0.728342	-0.320754	0.346918	-0.744615	-0.337627	0.310163	-0.741831	-0.277919	0.290639	-0.737902	-0.268542	0.333548	-0.742071	-0.405000	0.149215	-0.693003	-0.287219	0.032937	-0.737376	-0.261120	0.034402	-0.667639	-0.241793	0.023547	-0.673340	
878	4.3900	-0.311287	1.418016	-0.588641	-0.266081	1.387311	-0.760071	-0.278088	1.407093	-0.414222	-0.196436	1.377966	-0.584013	-0.173731	0.989542	-0.484384	-0.167435	0.993296	-0.663330	-0.241902	1.034590	-0.443349	-0.231511	1.036625	-0.704643	-0.317271	1.019080	-0.516906	-0.314287	1.019517	-0.627239	-0.320970	1.031327	-0.575257	-0.260993	0.820929	-0.401515	-0.244206	0.763597	-0.395572	-0.181996	0.776441	-0.408777	-0.190637	0.836820	-0.415936	-0.278460	0.379346	-0.369216	-0.297510	0.340926	-0.367881	-0.243697	0.321301	-0.388647	-0.230387	0.359001	-0.392681	-0.386709	0.147784	-0.417520	-0.265426	0.040223	-0.364007	-0.241193	0.036566	-0.435997	-0.220819	0.024885	-0.430744	-0.242050	0.780764	-0.749839	-0.226963	0.721047	-0.747247	-0.165853	0.731073	-0.727512	-0.173276	0.790385	-0.728780	-0.321652	0.350172	-0.745530	-0.337909	0.313121	-0.742726	-0.277886	0.294557	-0.739316	-0.269218	0.337601	-0.743422	-0.402065	0.152177	-0.694060	-0.286228	0.033605	-0.737496	-0.260320	0.035097	-0.668073	-0.241469	0.023757	-0.673724	
879	4.3950	-0.311345	1.422733	-0.589019	-0.265625	1.392436	-0.760190	-0.277993	1.412161	-0.414926	-0.196774	1.382919	-0.584355	-0.173544	0.994539	-0.485032	-0.166993	0.998029	-0.663671	-0.241590	1.040068	-0.444276	-0.230949	1.041475	-0.704943	-0.316711	1.024064	-0.517744	-0.313599	1.024190	-0.627899	-0.320500	1.036102	-0.576018	-0.260794	0.826325	-0.401495	-0.244508	0.768871	-0.395432	-0.182241	0.781097	-0.408965	-0.190367	0.841517	-0.416349	-0.280241	0.383334	-0.369154	-0.298648	0.344535	-0.367881	-0.244276	0.325709	-0.387888	-0.231583	0.363543	-0.392103	-0.383781	0.151241	-0.417881	-0.264624	0.041432	-0.364139	-0.239982	0.037685	-0.435701	-0.220235	0.025155	-0.430508	-0.242121	0.785846	-0.750577	-0.227571	0.725996	-0.748095	-0.166473	0.735420	-0.728050	-0.173374	0.794799	-0.729178	-0.322541	0.353323	-0.746456	-0.338186	0.315993	-0.743633	-0.277868	0.298373	-0.740722	-0.269899	0.341534	-0.744769	-0.399126	0.155143	-0.695116	-0.285191	0.034370	-0.737645	-0.259407	0.035927	-0.668515	-0.241040	0.024020	-0.674109	
880	4.4000	-0.311460	1.427212	-0.589414	-0.265238	1.397311	-0.760339	-0.277987	1.416971	-0.415609	-0.196942	1.387697	-0.584742	-0.173318	0.999281	-0.485637	-0.166498	1.002519	-0.664005	-0.241266	1.045260	-0.445109	-0.230400	1.046076	-0.705269	-0.316138	1.028853	-0.518541	-0.312902	1.028679	-0.628534	-0.320001	1.040679	-0.576747	-0.260682	0.831496	-0.401517	-0.244893	0.773911	-0.395313	-0.182559	0.785542	-0.409105	-0.190180	0.846008	-0.416699	-0.281990	0.387223	-0.369158	-0.299760	0.348042	-0.367933	-0.244857	0.330008	-0.387169	-0.232752	0.368006	-0.391519	-0.380869	0.154611	-0.418234	-0.263808	0.042698	-0.364264	-0.238659	0.038906	-0.435402	-0.219520	0.025472	-0.430263	-0.242202	0.790749	-0.751283	-0.228203	0.730770	-0.748951	-0.167121	0.739563	-0.728603	-0.173481	0.799006	-0.729547	-0.323407	0.356379	-0.747398	-0.338442	0.318787	-0.744548	-0.277858	0.302078	-0.742106	-0.270561	0.345354	-0.746097	-0.396225	0.158117	-0.696166	-0.284111	0.035252	-0.737822	-0.258380	0.036896	-0.668969	-0.240489	0.024358	-0.674502	
881	4.4050	-0.311630	1.431438	-0.589833	-0.264921	1.401910	-0.760530	-0.278083	1.421500	-0.416270	-0.197241	1.392246	-0.585103	-0.173051	1.003738	-0.486187	-0.165948	1.006743	-0.664325	-0.240928	1.050120	-0.445834	-0.229832	1.050415	-0.705616	-0.315553	1.033430	-0.519289	-0.312195	1.032976	-0.629142	-0.319483	1.045060	-0.577443	-0.260677	0.836408	-0.401587	-0.245371	0.778700	-0.395228	-0.182962	0.789762	-0.409184	-0.190086	0.850269	-0.416976	-0.283664	0.390937	-0.369191	-0.300827	0.351430	-0.368024	-0.245429	0.334196	-0.386505	-0.233876	0.372363	-0.390944	-0.378014	0.157910	-0.418582	-0.262980	0.044027	-0.364394	-0.237237	0.040222	-0.435101	-0.218682	0.025854	-0.429987	-0.242311	0.795432	-0.751943	-0.228873	0.735331	-0.749812	-0.167793	0.743480	-0.729187	-0.173605	0.802973	-0.729909	-0.324223	0.359338	-0.748356	-0.338671	0.321507	-0.745477	-0.277844	0.305670	-0.743447	-0.271193	0.349050	-0.747383	-0.393405	0.161087	-0.697200	-0.282996	0.036264	-0.738021	-0.257256	0.038028	-0.669456	-0.239811	0.024808	-0.674927	
882	4.4100	-0.311856	1.435397	-0.590280	-0.264673	1.406213	-0.760771	-0.278289	1.425722	-0.416898	-0.197595	1.396580	-0.585451	-0.172732	1.007889	-0.486682	-0.165349	1.010682	-0.664625	-0.240554	1.054622	-0.446450	-0.229233	1.054463	-0.705977	-0.314950	1.037791	-0.519989	-0.311477	1.037073	-0.629723	-0.318944	1.049232	-0.578102	-0.260794	0.841036	-0.401691	-0.245948	0.783216	-0.395186	-0.183458	0.793740	-0.409199	-0.190091	0.854288	-0.417163	-0.285224	0.394501	-0.369252	-0.301823	0.354698	-0.368137	-0.245970	0.338233	-0.385914	-0.234936	0.376588	-0.390398	-0.375242	0.161115	-0.418944	-0.262146	0.045414	-0.364550	-0.235757	0.041632	-0.434770	-0.217760	0.026302	-0.429664	-0.242463	0.799869	-0.752551	-0.229577	0.739645	-0.750665	-0.168489	0.747152	-0.729813	-0.173757	0.806684	-0.730284	-0.324967	0.362205	-0.749315	-0.338866	0.324145	-0.746410	-0.277817	0.309143	-0.744738	-0.271778	0.352620	-0.748621	-0.390712	0.164038	-0.698213	-0.281863	0.037405	-0.738236	-0.256056	0.039327	-0.669990	-0.239018	0.025409	-0.675409	
883	4.4150	-0.312137	1.439086	-0.590765	-0.264494	1.410208	-0.761068	-0.278605	1.429637	-0.417478	-0.197976	1.400665	-0.585798	-0.172369	1.011716	-0.487117	-0.164713	1.014318	-0.664898	-0.240153	1.058752	-0.446958	-0.228571	1.058212	-0.706344	-0.314331	1.041933	-0.520640	-0.310750	1.040974	-0.630275	-0.318401	1.053196	-0.578723	-0.261026	0.845373	-0.401838	-0.246628	0.787452	-0.395199	-0.184053	0.797471	-0.409143	-0.190202	0.858061	-0.417253	-0.286661	0.397923	-0.369329	-0.302728	0.357831	-0.368272	-0.246471	0.342101	-0.385400	-0.235919	0.380665	-0.389894	-0.372579	0.164218	-0.419343	-0.261320	0.046850	-0.364740	-0.234248	0.043136	-0.434404	-0.216785	0.026845	-0.429279	-0.242672	0.804023	-0.753101	-0.230315	0.743681	-0.751494	-0.169200	0.750565	-0.730488	-0.173948	0.810121	-0.730686	-0.325619	0.364981	-0.750264	-0.339015	0.326718	-0.747340	-0.277773	0.312493	-0.745967	-0.272304	0.356051	-0.749801	-0.388220	0.166923	-0.699167	-0.280733	0.038677	-0.738454	-0.254813	0.040806	-0.670584	-0.238131	0.026211	-0.675974	
884	4.4200	-0.312460	1.442505	-0.591280	-0.264377	1.413887	-0.761420	-0.279023	1.433231	-0.418037	-0.198399	1.404492	-0.586133	-0.171968	1.015217	-0.487496	-0.164051	1.017642	-0.665144	-0.239703	1.062495	-0.447368	-0.227821	1.061662	-0.706710	-0.313702	1.045849	-0.521242	-0.310017	1.044680	-0.630804	-0.317804	1.056960	-0.579305	-0.261388	0.849412	-0.402031	-0.247421	0.791399	-0.395273	-0.184734	0.800960	-0.409023	-0.190417	0.861589	-0.417244	-0.287959	0.401188	-0.369428	-0.303535	0.360829	-0.368418	-0.246923	0.345777	-0.384962	-0.236804	0.384576	-0.389431	-0.370068	0.167197	-0.419739	-0.260514	0.048358	-0.364963	-0.232745	0.044731	-0.434002	-0.215786	0.027511	-0.428807	-0.242950	0.807861	-0.753595	-0.231086	0.747415	-0.752288	-0.169925	0.753708	-0.731216	-0.174179	0.813291	-0.731130	-0.326179	0.367663	-0.751198	-0.339122	0.329225	-0.748264	-0.277711	0.315709	-0.747132	-0.272760	0.359335	-0.750918	-0.385970	0.169732	-0.700082	-0.279638	0.040087	-0.738685	-0.253561	0.042467	-0.671245	-0.237179	0.027251	-0.676641	
885	4.4250	-0.312814	1.445654	-0.591815	-0.264314	1.417253	-0.761826	-0.279533	1.436502	-0.418562	-0.198899	1.408054	-0.586450	-0.171534	1.018396	-0.487832	-0.163381	1.020650	-0.665361	-0.239201	1.065867	-0.447693	-0.226965	1.064844	-0.707071	-0.313073	1.049540	-0.521795	-0.309288	1.048180	-0.631308	-0.317209	1.060525	-0.579856	-0.261877	0.853144	-0.402273	-0.248319	0.795053	-0.395415	-0.185513	0.804194	-0.408843	-0.190733	0.864859	-0.417147	-0.289103	0.404263	-0.369528	-0.304238	0.363665	-0.368575	-0.247318	0.349232	-0.384611	-0.237594	0.388230	-0.389070	-0.367776	0.170045	-0.420150	-0.259739	0.049950	-0.365212	-0.231290	0.046410	-0.433578	-0.214796	0.028322	-0.428254	-0.243299	0.811360	-0.754047	-0.231879	0.750816	-0.753037	-0.170650	0.756579	-0.731984	-0.174463	0.816187	-0.731625	-0.326645	0.370249	-0.752109	-0.339192	0.331667	-0.749181	-0.277639	0.318775	-0.748233	-0.273148	0.362449	-0.751975	-0.384002	0.172420	-0.700945	-0.278596	0.041628	-0.738941	-0.252334	0.044301	-0.671969	-0.236195	0.028559	-0.677419	
886	4.4300	-0.313190	1.448536	-0.592362	-0.264301	1.420308	-0.762276	-0.280124	1.439459	-0.419043	-0.199317	1.411369	-0.586780	-0.171082	1.021267	-0.488135	-0.162721	1.023346	-0.665552	-0.238648	1.068902	-0.447955	-0.226029	1.067760	-0.707423	-0.312449	1.053006	-0.522305	-0.308572	1.051477	-0.631791	-0.316602	1.063880	-0.580371	-0.262492	0.856572	-0.402581	-0.249324	0.798403	-0.395616	-0.186381	0.807172	-0.408624	-0.191157	0.867872	-0.416975	-0.290097	0.407114	-0.369640	-0.304826	0.366340	-0.368741	-0.247654	0.352444	-0.384349	-0.238283	0.391597	-0.388807	-0.365751	0.172735	-0.420575	-0.259000	0.051611	-0.365472	-0.229919	0.048164	-0.433142	-0.213850	0.029298	-0.427644	-0.243716	0.814502	-0.754474	-0.232674	0.753882	-0.753735	-0.171372	0.759186	-0.732779	-0.174804	0.818817	-0.732172	-0.327031	0.372734	-0.752987	-0.339239	0.334034	-0.750079	-0.277567	0.321671	-0.749269	-0.273471	0.365383	-0.752976	-0.382354	0.174966	-0.701767	-0.277650	0.043272	-0.739231	-0.251150	0.046279	-0.672750	-0.235209	0.030125	-0.678295	
